<svg xmlns="http://www.w3.org/2000/svg" width="500" height="500" viewBox="0 0 500 500" version="1.1"><path d="M 172.750 106.750 C 196.538 106.899, 235.463 106.899, 259.250 106.750 C 283.038 106.600, 263.575 106.478, 216 106.478 C 168.425 106.478, 148.963 106.600, 172.750 106.750 M 200.252 173.500 C 200.263 175.700, 200.468 176.482, 200.707 175.238 C 200.946 173.994, 200.937 172.194, 200.687 171.238 C 200.437 170.282, 200.241 171.300, 200.252 173.500 M 369.232 175 C 369.232 176.925, 369.438 177.713, 369.689 176.750 C 369.941 175.787, 369.941 174.213, 369.689 173.250 C 369.438 172.287, 369.232 173.075, 369.232 175 M 134.462 179.250 L 129.500 184.500 134.750 179.538 C 139.628 174.926, 140.459 174, 139.712 174 C 139.554 174, 137.192 176.363, 134.462 179.250 M 369.252 182.500 C 369.263 184.700, 369.468 185.482, 369.707 184.238 C 369.946 182.994, 369.937 181.194, 369.687 180.238 C 369.437 179.282, 369.241 180.300, 369.252 182.500 M 165.995 218.750 L 129.500 255.500 166.250 219.005 C 186.463 198.933, 203 182.395, 203 182.255 C 203 181.550, 199.914 184.594, 165.995 218.750 M 170 232.500 C 147.730 254.775, 129.734 273, 130.009 273 C 130.284 273, 148.730 254.775, 171 232.500 C 193.270 210.225, 211.266 192, 210.991 192 C 210.716 192, 192.270 210.225, 170 232.500 M 218.250 193.689 C 219.213 193.941, 220.787 193.941, 221.750 193.689 C 222.713 193.438, 221.925 193.232, 220 193.232 C 218.075 193.232, 217.287 193.438, 218.250 193.689 M 295.750 202.706 C 296.988 202.944, 299.012 202.944, 300.250 202.706 C 301.488 202.467, 300.475 202.272, 298 202.272 C 295.525 202.272, 294.512 202.467, 295.750 202.706 M 265.250 297.689 C 266.212 297.941, 267.788 297.941, 268.750 297.689 C 269.712 297.438, 268.925 297.232, 267 297.232 C 265.075 297.232, 264.288 297.438, 265.250 297.689 M 369.232 326 C 369.232 327.925, 369.438 328.712, 369.689 327.750 C 369.941 326.788, 369.941 325.212, 369.689 324.250 C 369.438 323.288, 369.232 324.075, 369.232 326 M 172.250 393.750 C 195.763 393.899, 234.238 393.899, 257.750 393.750 C 281.263 393.600, 262.025 393.478, 215 393.478 C 167.975 393.478, 148.738 393.600, 172.250 393.750" stroke="none" fill="#878686" fill-rule="evenodd"/><path d="M 130 145.212 L 130 183.425 134.847 178.650 C 139.532 174.036, 139.679 173.716, 139.236 169.104 C 137.623 152.320, 161.367 147.846, 166.016 164.057 C 168.772 173.666, 158.665 183.772, 149.054 181.015 C 146.473 180.275, 145.593 180.868, 138.123 188.376 L 130 196.542 130 225.519 L 130 254.497 165.971 218.498 L 201.943 182.500 200.808 178.085 C 197.747 166.179, 207.526 153.960, 220.066 154.022 C 234.893 154.095, 244.370 169.342, 237.898 182.711 C 233.977 190.810, 224.330 195.356, 215.744 193.150 L 211.500 192.059 170.750 232.775 L 130 273.491 130 303.745 C 130 320.385, 130.361 334, 130.802 334 C 131.243 334, 164.103 301.430, 203.824 261.622 C 275.634 189.653, 276.037 189.227, 274.932 186.372 C 273.015 181.419, 273.485 172.985, 275.970 167.744 C 284.403 149.962, 310.667 149.398, 319.373 166.812 C 322.676 173.420, 323.277 178.703, 321.432 184.916 C 317.645 197.669, 303.064 205.826, 291.347 201.747 L 287.194 200.301 208.597 278.903 L 130 357.505 130 375.252 L 130 393 217.542 393 C 316.659 393, 313.599 393.209, 329.951 385.320 C 347.779 376.718, 361.945 359.151, 367.073 339.287 C 373.772 313.334, 364.108 283.506, 343.631 266.938 L 337.521 261.994 313.225 286.247 C 293.500 305.936, 289.046 310.876, 289.555 312.500 C 289.901 313.600, 290.422 317.103, 290.714 320.284 C 291.378 327.510, 289.328 333.326, 284.291 338.512 C 275.176 347.898, 260.184 348.678, 250.857 340.252 C 244.745 334.730, 242.565 329.801, 242.530 321.422 C 242.504 315.257, 242.892 313.708, 245.536 309.422 C 251.235 300.182, 263.312 295.332, 273.156 298.330 L 277.811 299.747 315.796 261.624 C 339.756 237.577, 355.155 221.331, 357.500 217.627 C 365.774 204.560, 369.109 193.185, 369.080 178.132 C 369.042 158.401, 362.243 142.199, 347.988 127.870 C 340.731 120.576, 337.940 118.539, 329.951 114.705 C 313.305 106.716, 317.436 107, 218.053 107 L 130 107 130 145.212 M 262.315 312.425 C 258.977 313.917, 256 318.431, 256 322 C 256 324.934, 258.650 329.742, 260.945 330.970 C 262.003 331.537, 264.733 332, 267.011 332 C 270.257 332, 271.787 331.367, 274.077 329.077 C 282.110 321.043, 272.732 307.766, 262.315 312.425" stroke="none" fill="#1e1d1d" fill-rule="evenodd"/></svg>